<?xml version="1.0" encoding="iso-8859-1"?>
<!-- Generator: Adobe Illustrator 19.0.0, SVG Export Plug-In . SVG Version: 6.00 Build 0)  -->
<svg version="1.1" id="Layer_1" xmlns="http://www.w3.org/2000/svg" xmlns:xlink="http://www.w3.org/1999/xlink" x="0px" y="0px"
	 viewBox="0 0 335.059 335.059" style="enable-background:new 0 0 335.059 335.059;" xml:space="preserve">
<g>
	<g>
		<g>
			<path d="M57.564,140.864c-14.704,0-26.666,11.962-26.666,26.667c0,14.705,11.962,26.667,26.666,26.667
				c14.704,0,26.667-11.962,26.667-26.667C84.231,152.826,72.269,140.864,57.564,140.864z M57.564,179.197
				c-6.433,0-11.666-5.233-11.666-11.667c0-6.433,5.233-11.667,11.666-11.667c6.434,0,11.667,5.233,11.667,11.667
				C69.231,173.963,63.998,179.197,57.564,179.197z"/>
			<path d="M314.378,140.823v-8.487c0-9.42-7.664-17.084-17.084-17.084c-9.421,0-17.085,7.664-17.085,17.084v7.613h-4.169v-18.263
				c0-9.42-7.664-17.084-17.084-17.084c-9.42,0-17.084,7.664-17.084,17.084v18.263h-4.169v-7.613c0-9.42-7.664-17.084-17.085-17.084
				c-9.42,0-17.084,7.664-17.084,17.084v7.613H164.73c-11.656-33.891-43.785-57.09-80.06-57.09C37.982,82.86,0,120.843,0,167.53
				s37.982,84.67,84.67,84.67c36.274,0,68.403-23.199,80.06-57.09h142.749c15.208,0,27.58-12.373,27.58-27.581
				C335.059,154.704,326.258,143.895,314.378,140.823z M307.478,180.111H159.186c-3.393,0-6.362,2.277-7.243,5.553
				c-8.157,30.344-35.821,51.537-67.272,51.537c-38.416,0-69.67-31.254-69.67-69.67c0-38.416,31.254-69.67,69.67-69.67
				c31.451,0,59.115,21.193,67.272,51.537c0.881,3.276,3.851,5.553,7.243,5.553h51.849c4.143,0,7.5-3.358,7.5-7.5v-15.113
				c0-1.149,0.935-2.084,2.084-2.084s2.085,0.935,2.085,2.084v15.113c0,4.142,3.357,7.5,7.5,7.5h19.169c4.143,0,7.5-3.358,7.5-7.5
				v-25.763c0-1.149,0.935-2.084,2.084-2.084s2.084,0.935,2.084,2.084v25.763c0,4.142,3.357,7.5,7.5,7.5h19.169
				c4.143,0,7.5-3.358,7.5-7.5v-15.113c0-1.149,0.935-2.084,2.085-2.084c1.149,0,2.084,0.935,2.084,2.084v15.113
				c0,4.142,3.358,7.5,7.5,7.5h0.601c6.937,0,12.58,5.644,12.58,12.581C320.06,174.469,314.415,180.111,307.478,180.111z"/>
		</g>
	</g>
</g>
<g>
</g>
<g>
</g>
<g>
</g>
<g>
</g>
<g>
</g>
<g>
</g>
<g>
</g>
<g>
</g>
<g>
</g>
<g>
</g>
<g>
</g>
<g>
</g>
<g>
</g>
<g>
</g>
<g>
</g>
</svg>
